<?xml version="1.0" encoding="utf-8"?>
<!-- Generator: Adobe Illustrator 26.0.2, SVG Export Plug-In . SVG Version: 6.00 Build 0)  -->
<svg version="1.1" id="Layer_1" xmlns="http://www.w3.org/2000/svg" xmlns:xlink="http://www.w3.org/1999/xlink" x="0px" y="0px"
	 viewBox="0 0 83.1 55.3" style="enable-background:new 0 0 83.1 55.3;" xml:space="preserve">
<style type="text/css">
	.st0{clip-path:url(#SVGID_00000158742775442125018470000002946795929713407644_);fill:#FFFFFF;}
	.st1{clip-path:url(#SVGID_00000158742775442125018470000002946795929713407644_);fill:#DF1995;}
</style>
<g>
	<defs>
		<rect id="SVGID_1_" width="83.1" height="55.3"/>
	</defs>
	<clipPath id="SVGID_00000036959556808169587750000012861919140182995862_">
		<use xlink:href="#SVGID_1_"  style="overflow:visible;"/>
	</clipPath>
	<path style="clip-path:url(#SVGID_00000036959556808169587750000012861919140182995862_);fill:#FFFFFF;" d="M12.4,5.3
		c0.7,0,1.3,0.1,1.9,0.2V0c-3.7,0-6.6,1.4-8.7,4.1V0.6H0v25.2h5.6V11.9C5.6,8,8.4,5.3,12.4,5.3 M36.1,25.8h5.6V0.6h-5.6v14.3
		c0,3.7-2.6,6.1-6.4,6.1c-3.6,0-6-2.4-6-6V0.6h-5.6v16.1c0,5.9,3.9,9.7,9.8,9.7c3.5,0,6.3-1.4,8.2-4V25.8z M64.4,25.8H70V9.9
		C70,4,65.9,0,59.8,0c-3.7,0-6.6,1.4-8.7,4.1V0.6h-5.6v25.2h5.6V11.9c0-3.9,2.7-6.5,6.8-6.5c3.9,0,6.4,2.6,6.4,6.4V25.8z M83.1,5.7
		c0-2.2-1.7-3.9-4-3.9c-2.3,0-4,1.7-4,3.9c0,2.3,1.8,4,4,4C81.4,9.7,83.1,8,83.1,5.7"/>
	<path style="clip-path:url(#SVGID_00000036959556808169587750000012861919140182995862_);fill:#DF1995;" d="M81.9,29.5h-5.6v25.2
		h5.6V29.5z M64.3,46.5c0,2.5-2.4,4.1-6,4.1c-2.5,0-4.4-1.6-4.4-3.7c0-2.1,1.9-3.7,4.4-3.7h6V46.5z M65,54.7h7.5v-5H70V29.5H51.2
		v5.2h13.2v3.8h-7c-5.3,0-9.3,3.6-9.3,8.3c0,4.8,4,8.4,9.3,8.4c3.2,0,5.9-1.3,7.6-3.5V54.7z M83.1,20.6c0-2.2-1.7-4-4-4
		c-2.3,0-4,1.7-4,4c0,2.2,1.8,3.9,4,3.9C81.4,24.6,83.1,22.9,83.1,20.6"/>
</g>
</svg>
